<svg xmlns="http://www.w3.org/2000/svg" width="254.879" height="240.508" viewBox="0 0 254.879 240.508"><g transform="translate(-91.011 -65.691)"><path d="M914.957,250.491l60.96-6.1,47.106-7.759,78.14,11.084H1066.8l-40.455-3.325-34.359,3.325Z" transform="translate(-798.836 55.708)" fill="#f4ebcd"/><path d="M1292.947,350.008s6.128-1.066,8.526-1.865,4.529-2.931,6.394-6.128a14.009,14.009,0,0,1,6.661-6.394c2.931-1.332,7.46-12.522,7.46-18.65a190.789,190.789,0,0,0-2.131-23.979c-.8-3.73-2.931-10.124-5.329-11.723s-3.73-3.2-6.661-3.2-7.193,1.332-9.592,0a48.631,48.631,0,0,1-4.661-3.011s3.565.979,5.242,1.258a34.375,34.375,0,0,0,6.78.489,33.2,33.2,0,0,0,3.844-.489s-3.984-4.124-8.038-5.1-8.108-2.377-11.114-2.726a20.642,20.642,0,0,1-6.571-2.446,76.093,76.093,0,0,0,8.528,1.188,77.09,77.09,0,0,1,8.737,1.258h1.468s-1.538-2.377-2.307-3.914a27.132,27.132,0,0,1-1.328-5.662s3.984,6.78,6.291,8.737,11.324,9.716,12.792,9.856,4.474.14,5.382-2.446,1.4-3.844,0-5.592-3.844-4.893-4.893-5.242,4.683,1.887,5.592,3.006,1.468-2.377-1.4-6.011-6.824-8.318-8.1-10.764a29.587,29.587,0,0,1-2.04-6.57s2.936,4.823,4.823,6.57,6.291,6.5,6.291,6.5-.07-3.006,0-3.984,2.027-3.7,3.006-4.613-1.258.979-1.118,5.662,1.188,7.06,2.237,8.737a19.145,19.145,0,0,1,2.447,8.737c.07,3.495,2.079,13.544,1.907,25.072s-1.893,25.465-3.613,30.627-4.534,13.249-10.526,17.206-14.236,5.194-15.448,5.608S1292.947,350.008,1292.947,350.008Z" transform="translate(-1055.225 -62.712)" fill="#796149"/><path d="M1366.828,296.215s2.226,14.969,2.226,18.066-.172,18.066-.86,25.981-2.925,18.066-4.3,21.507-5.85,10.324-8.259,11.7-6.538,3.269-6.538,3.269,5.506.172,8.6-1.721,4.99-3.785,7.054-3.785,5.85,2.237,8.431,3.785,8.259,2.581,10.324,2.581h6.538s-9.979-2.237-13.249-6.366a23.932,23.932,0,0,1-4.818-15.313c.172-5.506,1.2-23.228,1.2-27.013s-.344-7.4,1.032-9.979,3.614-8.259,6.883-9.807,5.633-2.773,8.433-2.984,8.083-.476,8.083-.476-3.7-2.325-6.129-2.166-2.695-.159-1.955-.687a29.9,29.9,0,0,1,6.6-2.272c1.638-.264,4.174-.845,4.174-.845a44.019,44.019,0,0,0-8.19,0,38.032,38.032,0,0,0-6.34,1.744c-1.585.528-2.959,1.11-2.959,1.11a14.979,14.979,0,0,1,.74-2.642,34.864,34.864,0,0,0,1-5.548,35.29,35.29,0,0,1-4.069,6.182c-2.219,2.536-3.276,3.8-4.7,4.65a4.935,4.935,0,0,1-4.016.476C1370.986,305.291,1366.828,296.215,1366.828,296.215Z" transform="translate(-1089.964 -89.545)" fill="#b88f60"/><path d="M1403.659,358.89a121.927,121.927,0,0,1,1.026,14.81c-.136,5.978-1.509,11.142-1.026,15.489s2.521,12.093,5.917,15.218,6.929,5.163,9.919,5.3a76.355,76.355,0,0,1,9.1,1.495s-3.94-2.582-6.114-3.669-2.853-4.756-4.484-5.3-6.658-3.4-8.424-6.794-2.853-10.19-2.718-14.267-.815-14.81-1.087-16.712A26.67,26.67,0,0,0,1403.659,358.89Z" transform="translate(-1118.92 -123.857)" fill="#d9a46b"/><path d="M4.465,0H15.2a4.465,4.465,0,0,1,4.465,4.465V14.736A4.465,4.465,0,0,1,15.2,19.2H4.465A4.465,4.465,0,0,1,0,14.736V4.465A4.465,4.465,0,0,1,4.465,0Z" transform="translate(254.886 154.129)" fill="#a5c32a"/><path d="M4.465,0H15.2a4.465,4.465,0,0,1,4.465,4.465V14.736A4.465,4.465,0,0,1,15.2,19.2H4.465A4.465,4.465,0,0,1,0,14.736V4.465A4.465,4.465,0,0,1,4.465,0Z" transform="translate(322.475 197.619)" fill="#a5c32a"/><path d="M4.465,0H15.2a4.465,4.465,0,0,1,4.465,4.465V14.736A4.465,4.465,0,0,1,15.2,19.2H4.465A4.465,4.465,0,0,1,0,14.736V4.465A4.465,4.465,0,0,1,4.465,0Z" transform="translate(211.167 163.305)" fill="#a5c32a"/><path d="M2.233,0h9.116a2.233,2.233,0,0,1,2.233,2.233v8.179a2.233,2.233,0,0,1-2.233,2.233H2.233A2.233,2.233,0,0,1,0,10.412V2.233A2.233,2.233,0,0,1,2.233,0Z" transform="translate(325.284 143.763)" fill="#a5c32a"/><path d="M4.465,0H15.2a4.465,4.465,0,0,1,4.465,4.465V14.736A4.465,4.465,0,0,1,15.2,19.2H4.465A4.465,4.465,0,0,1,0,14.736V4.465A4.465,4.465,0,0,1,4.465,0Z" transform="translate(285.009 129.245)" fill="#a5c32a"/><path d="M2.233,0H8.07A2.233,2.233,0,0,1,10.3,2.233V7.6A2.233,2.233,0,0,1,8.07,9.835H2.233A2.233,2.233,0,0,1,0,7.6V2.233A2.233,2.233,0,0,1,2.233,0Z" transform="translate(279.39 167.647)" fill="#a5c32a"/><path d="M2.233,0h9.584a2.233,2.233,0,0,1,2.233,2.233v9.584a2.233,2.233,0,0,1-2.233,2.233H2.233A2.233,2.233,0,0,1,0,11.817V2.233A2.233,2.233,0,0,1,2.233,0Z" transform="translate(242.393 174.671)" fill="#a5c32a"/><path d="M2.233,0h9.584a2.233,2.233,0,0,1,2.233,2.233v9.584a2.233,2.233,0,0,1-2.233,2.233H2.233A2.233,2.233,0,0,1,0,11.817V2.233A2.233,2.233,0,0,1,2.233,0Z" transform="translate(255.417 134.396)" fill="#a5c32a"/><path d="M2.233,0h9.584a2.233,2.233,0,0,1,2.233,2.233v9.584a2.233,2.233,0,0,1-2.233,2.233H2.233A2.233,2.233,0,0,1,0,11.817V2.233A2.233,2.233,0,0,1,2.233,0Z" transform="translate(331.841 165.305)" fill="#a5c32a"/><path d="M2.233,0H8.07A2.233,2.233,0,0,1,10.3,2.233V7.6A2.233,2.233,0,0,1,8.07,9.835H2.233A2.233,2.233,0,0,1,0,7.6V2.233A2.233,2.233,0,0,1,2.233,0Z" transform="translate(310.298 148.446)" fill="#a5c32a"/><path d="M2.233,0H8.07A2.233,2.233,0,0,1,10.3,2.233V7.6A2.233,2.233,0,0,1,8.07,9.835H2.233A2.233,2.233,0,0,1,0,7.6V2.233A2.233,2.233,0,0,1,2.233,0Z" transform="translate(314.982 171.393)" fill="#a5c32a"/><path d="M2.233,0H4.324A2.233,2.233,0,0,1,6.556,2.233V3.856A2.233,2.233,0,0,1,4.324,6.088H2.233A2.233,2.233,0,0,1,0,3.856V2.233A2.233,2.233,0,0,1,2.233,0Z" transform="translate(299.362 193.024)" fill="#a5c32a"/><path d="M2.233,0H4.324A2.233,2.233,0,0,1,6.556,2.233V3.856A2.233,2.233,0,0,1,4.324,6.088H2.233A2.233,2.233,0,0,1,0,3.856V2.233A2.233,2.233,0,0,1,2.233,0Z" transform="translate(270.96 140.953)" fill="#a5c32a"/><path d="M2.233,0H4.324A2.233,2.233,0,0,1,6.556,2.233V3.856A2.233,2.233,0,0,1,4.324,6.088H2.233A2.233,2.233,0,0,1,0,3.856V2.233A2.233,2.233,0,0,1,2.233,0Z" transform="translate(270.023 174.671)" fill="#a5c32a"/><path d="M2.233,0H4.324A2.233,2.233,0,0,1,6.556,2.233V3.856A2.233,2.233,0,0,1,4.324,6.088H2.233A2.233,2.233,0,0,1,0,3.856V2.233A2.233,2.233,0,0,1,2.233,0Z" transform="translate(315.918 187.316)" fill="#a5c32a"/><path d="M2.233,0H5.26A2.233,2.233,0,0,1,7.493,2.233v2.56A2.233,2.233,0,0,1,5.26,7.025H2.233A2.233,2.233,0,0,1,0,4.792V2.233A2.233,2.233,0,0,1,2.233,0Z" transform="translate(234.9 191.531)" fill="#a5c32a"/><path d="M2.233,0H5.26A2.233,2.233,0,0,1,7.493,2.233v2.56A2.233,2.233,0,0,1,5.26,7.025H2.233A2.233,2.233,0,0,1,0,4.792V2.233A2.233,2.233,0,0,1,2.233,0Z" transform="translate(330.436 181.696)" fill="#a5c32a"/><path d="M1325.016,355.741s-6.459-1.123-8.986-1.966-4.774-3.089-6.74-6.459-3.931-5.336-7.021-6.74-7.863-13.2-7.863-19.658,1.4-21.343,2.247-25.274,3.089-10.671,5.616-12.356,3.932-3.37,7.021-3.37,7.582,1.4,10.11,0a51.251,51.251,0,0,0,4.913-3.174s-3.757,1.031-5.526,1.326a36.227,36.227,0,0,1-7.146.516,35,35,0,0,1-4.052-.516s4.2-4.347,8.473-5.378,8.546-2.505,11.714-2.873a21.752,21.752,0,0,0,6.926-2.579,80.2,80.2,0,0,1-8.988,1.253,81.241,81.241,0,0,0-9.209,1.326h-1.547s1.621-2.505,2.431-4.126a28.6,28.6,0,0,0,1.4-5.968s-4.2,7.146-6.631,9.209-11.935,10.241-13.483,10.388-4.715.147-5.673-2.579-1.473-4.052,0-5.894,4.052-5.157,5.157-5.526-4.936,1.989-5.894,3.168-1.547-2.505,1.474-6.336,7.193-8.767,8.532-11.346a31.178,31.178,0,0,0,2.15-6.925s-3.094,5.084-5.084,6.925-6.631,6.852-6.631,6.852.074-3.168,0-4.2-2.137-3.9-3.168-4.863,1.326,1.031,1.179,5.968-1.252,7.441-2.358,9.209a20.18,20.18,0,0,0-2.579,9.209c-.074,3.684-2.191,14.276-2.01,26.426s1.995,26.841,3.809,32.281,4.779,13.964,11.094,18.135,15.005,5.474,16.282,5.911S1325.016,355.741,1325.016,355.741Z" transform="translate(-1120.532 -64.196)" fill="#796149"/><path d="M1384.386,296.316s-2.346,15.778-2.346,19.042.181,19.042.906,27.385,3.083,19.042,4.534,22.669,6.166,10.881,8.7,12.332,6.892,3.446,6.892,3.446-5.8.181-9.068-1.813-5.26-3.99-7.436-3.99-6.166,2.358-8.886,3.99-8.7,2.72-10.881,2.72h-6.892s10.519-2.358,13.965-6.71a25.225,25.225,0,0,0,5.078-16.141c-.181-5.8-1.27-24.483-1.27-28.473s.363-7.8-1.088-10.518-3.809-8.7-7.254-10.337-5.937-2.922-8.889-3.145-8.521-.5-8.521-.5,3.9-2.45,6.46-2.283,2.84-.167,2.061-.724a31.512,31.512,0,0,0-6.961-2.395c-1.726-.278-4.4-.891-4.4-.891a46.394,46.394,0,0,1,8.632,0,40.076,40.076,0,0,1,6.683,1.838c1.671.557,3.119,1.17,3.119,1.17a15.794,15.794,0,0,0-.78-2.785,36.736,36.736,0,0,1-1.058-5.848,37.2,37.2,0,0,0,4.288,6.516c2.339,2.673,3.453,4.01,4.956,4.9a5.2,5.2,0,0,0,4.232.5C1380,305.882,1384.386,296.316,1384.386,296.316Z" transform="translate(-1221.16 -89.752)" fill="#b88f60"/><path d="M1429.843,358.89a128.463,128.463,0,0,0-1.081,15.61c.143,6.3,1.59,11.743,1.081,16.326s-2.657,12.746-6.237,16.04-7.3,5.442-10.455,5.585a80.472,80.472,0,0,0-9.595,1.575s4.153-2.721,6.444-3.867,3.008-5.013,4.726-5.585,7.018-3.58,8.879-7.161,3.008-10.741,2.864-15.037.86-15.61,1.146-17.615A28.108,28.108,0,0,1,1429.843,358.89Z" transform="translate(-1274.917 -122.432)" fill="#d9a46b"/><path d="M16.025,0H4.706A4.706,4.706,0,0,0,0,4.706V15.532a4.706,4.706,0,0,0,4.706,4.706H16.025a4.706,4.706,0,0,0,4.706-4.706V4.706A4.706,4.706,0,0,0,16.025,0Z" transform="translate(171.471 150.129)" fill="#a5c32a"/><path d="M16.025,0H4.706A4.706,4.706,0,0,0,0,4.706V15.532a4.706,4.706,0,0,0,4.706,4.706H16.025a4.706,4.706,0,0,0,4.706-4.706V4.706A4.706,4.706,0,0,0,16.025,0Z" transform="translate(94.96 197.023)" fill="#a5c32a"/><path d="M16.025,0H4.706A4.706,4.706,0,0,0,0,4.706V15.532a4.706,4.706,0,0,0,4.706,4.706H16.025a4.706,4.706,0,0,0,4.706-4.706V4.706A4.706,4.706,0,0,0,16.025,0Z" transform="translate(207.011 162.963)" fill="#a5c32a"/><path d="M11.962,0H2.353A2.353,2.353,0,0,0,0,2.353v8.621a2.353,2.353,0,0,0,2.353,2.353h9.608a2.353,2.353,0,0,0,2.353-2.353V2.353A2.353,2.353,0,0,0,11.962,0Z" transform="translate(98.416 140.257)" fill="#a5c32a"/><path d="M16.025,0H4.706A4.706,4.706,0,0,0,0,4.706V15.532a4.706,4.706,0,0,0,4.706,4.706H16.025a4.706,4.706,0,0,0,4.706-4.706V4.706A4.706,4.706,0,0,0,16.025,0Z" transform="translate(126.552 175.797)" fill="#a5c32a"/><path d="M8.506,0H2.353A2.353,2.353,0,0,0,0,2.353v5.66a2.353,2.353,0,0,0,2.353,2.353H8.506A2.353,2.353,0,0,0,10.86,8.013V2.353A2.353,2.353,0,0,0,8.506,0Z" transform="translate(150.245 165.431)" fill="#a5c32a"/><path d="M9.115,0H4.706A4.706,4.706,0,0,0,0,4.706V8.621a4.706,4.706,0,0,0,4.706,4.706H9.115a4.706,4.706,0,0,0,4.706-4.706V4.706A4.706,4.706,0,0,0,9.115,0Z" transform="translate(201.087 140.257)" fill="#a5c32a"/><path d="M12.455,0H2.353A2.353,2.353,0,0,0,0,2.353v10.1a2.353,2.353,0,0,0,2.353,2.353h10.1a2.353,2.353,0,0,0,2.353-2.353V2.353A2.353,2.353,0,0,0,12.455,0Z" transform="translate(185.292 172.836)" fill="#a5c32a"/><path d="M12.455,0H2.353A2.353,2.353,0,0,0,0,2.353v10.1a2.353,2.353,0,0,0,2.353,2.353h10.1a2.353,2.353,0,0,0,2.353-2.353V2.353A2.353,2.353,0,0,0,12.455,0Z" transform="translate(177.887 130.385)" fill="#a5c32a"/><path d="M12.455,0H2.353A2.353,2.353,0,0,0,0,2.353v10.1a2.353,2.353,0,0,0,2.353,2.353h10.1a2.353,2.353,0,0,0,2.353-2.353V2.353A2.353,2.353,0,0,0,12.455,0Z" transform="translate(130.501 152.598)" fill="#a5c32a"/><path d="M12.455,0H2.353A2.353,2.353,0,0,0,0,2.353v10.1a2.353,2.353,0,0,0,2.353,2.353h10.1a2.353,2.353,0,0,0,2.353-2.353V2.353A2.353,2.353,0,0,0,12.455,0Z" transform="translate(91.011 162.963)" fill="#a5c32a"/><path d="M8.506,0H2.353A2.353,2.353,0,0,0,0,2.353v5.66a2.353,2.353,0,0,0,2.353,2.353H8.506A2.353,2.353,0,0,0,10.86,8.013V2.353A2.353,2.353,0,0,0,8.506,0Z" transform="translate(152.675 151.661)" fill="#a5c32a"/><path d="M3,0H7.86a3,3,0,0,1,3,3V7.366a3,3,0,0,1-3,3H3a3,3,0,0,1-3-3V3A3,3,0,0,1,3,0Z" transform="translate(195.164 157.04)" fill="#a5c32a"/><path d="M8.506,0H2.353A2.353,2.353,0,0,0,0,2.353v5.66a2.353,2.353,0,0,0,2.353,2.353H8.506A2.353,2.353,0,0,0,10.86,8.013V2.353A2.353,2.353,0,0,0,8.506,0Z" transform="translate(117.667 145.193)" fill="#a5c32a"/><path d="M8.506,0H2.353A2.353,2.353,0,0,0,0,2.353v5.66a2.353,2.353,0,0,0,2.353,2.353H8.506A2.353,2.353,0,0,0,10.86,8.013V2.353A2.353,2.353,0,0,0,8.506,0Z" transform="translate(112.73 169.38)" fill="#a5c32a"/><path d="M4.557,0h-2.2A2.353,2.353,0,0,0,0,2.353V4.064A2.353,2.353,0,0,0,2.353,6.417h2.2A2.353,2.353,0,0,0,6.911,4.064V2.353A2.353,2.353,0,0,0,4.557,0Z" transform="translate(122.603 198.504)" fill="#a5c32a"/><path d="M4.557,0h-2.2A2.353,2.353,0,0,0,0,2.353V4.064A2.353,2.353,0,0,0,2.353,6.417h2.2A2.353,2.353,0,0,0,6.911,4.064V2.353A2.353,2.353,0,0,0,4.557,0Z" transform="translate(163.079 137.295)" fill="#a5c32a"/><path d="M4.557,0h-2.2A2.353,2.353,0,0,0,0,2.353V4.064A2.353,2.353,0,0,0,2.353,6.417h2.2A2.353,2.353,0,0,0,6.911,4.064V2.353A2.353,2.353,0,0,0,4.557,0Z" transform="translate(164.066 172.836)" fill="#a5c32a"/><path d="M4.557,0h-2.2A2.353,2.353,0,0,0,0,2.353V4.064A2.353,2.353,0,0,0,2.353,6.417h2.2A2.353,2.353,0,0,0,6.911,4.064V2.353A2.353,2.353,0,0,0,4.557,0Z" transform="translate(115.692 186.163)" fill="#a5c32a"/><path d="M5.545,0H2.353A2.353,2.353,0,0,0,0,2.353v2.7A2.353,2.353,0,0,0,2.353,7.4H5.545A2.353,2.353,0,0,0,7.9,5.051v-2.7A2.353,2.353,0,0,0,5.545,0Z" transform="translate(200.1 190.606)" fill="#a5c32a"/><path d="M5.545,0H2.353A2.353,2.353,0,0,0,0,2.353v2.7A2.353,2.353,0,0,0,2.353,7.4H5.545A2.353,2.353,0,0,0,7.9,5.051v-2.7A2.353,2.353,0,0,0,5.545,0Z" transform="translate(99.403 180.24)" fill="#a5c32a"/><path d="M1297.153,398.587s8.933-1.554,12.428-2.719,6.6-4.272,9.322-8.933,5.438-7.379,9.71-9.321,10.875-18.254,10.875-27.187-1.942-29.518-3.107-34.955-4.272-14.759-7.768-17.089-5.437-4.661-9.71-4.661-10.487,1.942-13.982,0a70.9,70.9,0,0,1-6.794-4.39s5.2,1.427,7.642,1.834a50.1,50.1,0,0,0,9.884.713,48.389,48.389,0,0,0,5.6-.713s-5.808-6.012-11.718-7.438-11.82-3.465-16.2-3.974-9.579-3.566-9.579-3.566a110.909,110.909,0,0,0,12.431,1.732c3.974.1,12.737,1.834,12.737,1.834h2.14s-2.242-3.465-3.363-5.706-1.936-8.254-1.936-8.254,5.808,9.884,9.171,12.737,16.507,14.164,18.647,14.367,6.521.2,7.846-3.566,2.038-5.6,0-8.152-5.6-7.133-7.133-7.642,6.827,2.751,8.152,4.382,2.14-3.465-2.038-8.763-9.948-12.126-11.8-15.692-2.974-9.578-2.974-9.578,4.28,7.031,7.031,9.578,9.171,9.476,9.171,9.476-.1-4.382,0-5.808,2.955-5.4,4.382-6.725-1.834,1.427-1.63,8.254,1.732,10.292,3.261,12.737a27.912,27.912,0,0,1,3.566,12.737c.1,5.095,3.031,19.744,2.78,36.549s-2.76,37.122-5.268,44.646-6.61,19.313-15.344,25.082-20.753,7.571-22.519,8.175S1297.153,398.587,1297.153,398.587Z" transform="translate(-1130.458 -102.494)" fill="#796149"/><path d="M1374.945,297.068s3.245,21.822,3.245,26.336-.251,26.336-1.254,37.874-4.264,26.336-6.271,31.353-8.528,15.049-12.04,17.056-9.531,4.766-9.531,4.766,8.026.251,12.541-2.508,7.274-5.518,10.284-5.518,8.528,3.261,12.29,5.518,12.039,3.762,15.049,3.762h9.531s-14.548-3.261-19.313-9.28a34.889,34.889,0,0,1-7.023-22.323c.251-8.026,1.756-33.861,1.756-39.379s-.5-10.785,1.5-14.548,5.267-12.039,10.033-14.3,8.211-4.042,12.293-4.35,11.784-.693,11.784-.693-5.391-3.389-8.935-3.158-3.928-.231-2.85-1a43.588,43.588,0,0,1,9.628-3.312c2.388-.385,6.085-1.232,6.085-1.232s-7.857-.693-11.939,0a55.428,55.428,0,0,0-9.243,2.542c-2.311.77-4.313,1.617-4.313,1.617a21.848,21.848,0,0,1,1.078-3.851,50.8,50.8,0,0,0,1.464-8.087,51.452,51.452,0,0,1-5.931,9.012c-3.235,3.7-4.775,5.546-6.855,6.778a7.2,7.2,0,0,1-5.854.693C1381.006,310.3,1374.945,297.068,1374.945,297.068Z" transform="translate(-1151.189 -118.508)" fill="#b88f60"/><path d="M1403.705,358.89s1.694,12.875,1.5,21.59-2.2,16.242-1.5,22.58,3.675,17.628,8.626,22.184,10.1,7.527,14.459,7.725,13.271,2.179,13.271,2.179-5.744-3.763-8.913-5.348-4.159-6.932-6.536-7.725-9.705-4.952-12.28-9.9-4.16-14.855-3.961-20.8-1.188-21.59-1.584-24.363S1403.705,358.89,1403.705,358.89Z" transform="translate(-1168.47 -138.985)" fill="#d9a46b"/><path d="M6,0H22.673a6,6,0,0,1,6,6V21.99a6,6,0,0,1-6,6H6a6,6,0,0,1-6-6V6A6,6,0,0,1,6,0Z" transform="translate(169.85 100.508)" fill="#a5c32a"/><path d="M6,0H22.673a6,6,0,0,1,6,6V21.99a6,6,0,0,1-6,6H6a6,6,0,0,1-6-6V6A6,6,0,0,1,6,0Z" transform="translate(287.668 162.364)" fill="#a5c32a"/><path d="M6,0H22.673a6,6,0,0,1,6,6V21.99a6,6,0,0,1-6,6H6a6,6,0,0,1-6-6V6A6,6,0,0,1,6,0Z" transform="translate(122.696 118.258)" fill="#a5c32a"/><path d="M3,0H16.8a3,3,0,0,1,3,3V15.433a3,3,0,0,1-3,3H3a3,3,0,0,1-3-3V3A3,3,0,0,1,3,0Z" transform="translate(279.764 86.854)" fill="#a5c32a"/><path d="M6,0H22.673a6,6,0,0,1,6,6V21.99a6,6,0,0,1-6,6H6a6,6,0,0,1-6-6V6A6,6,0,0,1,6,0Z" transform="translate(225.975 136.008)" fill="#a5c32a"/><path d="M6,0H22.673a6,6,0,0,1,6,6V21.99a6,6,0,0,1-6,6H6a6,6,0,0,1-6-6V6A6,6,0,0,1,6,0Z" transform="translate(221.052 65.691)" fill="#a5c32a"/><path d="M3,0h9.019a3,3,0,0,1,3,3v8.337a3,3,0,0,1-3,3H3a3,3,0,0,1-3-3V3A3,3,0,0,1,3,0Z" transform="translate(212.86 121.672)" fill="#a5c32a"/><path d="M6,0h7.115a6,6,0,0,1,6,6v6.433a6,6,0,0,1-6,6H6a6,6,0,0,1-6-6V6A6,6,0,0,1,6,0Z" transform="translate(138.446 86.854)" fill="#a5c32a"/><path d="M3,0H17.481a3,3,0,0,1,3,3V17.481a3,3,0,0,1-3,3H3a3,3,0,0,1-3-3V3A3,3,0,0,1,3,0Z" transform="translate(158.927 131.912)" fill="#a5c32a"/><path d="M3,0H17.481a3,3,0,0,1,3,3V17.481a3,3,0,0,1-3,3H3a3,3,0,0,1-3-3V3A3,3,0,0,1,3,0Z" transform="translate(169.167 73.201)" fill="#a5c32a"/><path d="M3,0H17.481a3,3,0,0,1,3,3V17.481a3,3,0,0,1-3,3H3a3,3,0,0,1-3-3V3A3,3,0,0,1,3,0Z" transform="translate(234.706 103.922)" fill="#a5c32a"/><path d="M3,0H17.481a3,3,0,0,1,3,3V17.481a3,3,0,0,1-3,3H3a3,3,0,0,1-3-3V3A3,3,0,0,1,3,0Z" transform="translate(289.322 118.258)" fill="#a5c32a"/><path d="M3,0h9.019a3,3,0,0,1,3,3v8.337a3,3,0,0,1-3,3H3a3,3,0,0,1-3-3V3A3,3,0,0,1,3,0Z" transform="translate(205.35 97.095)" fill="#a5c32a"/><path d="M3,0h9.019a3,3,0,0,1,3,3v8.337a3,3,0,0,1-3,3H3a3,3,0,0,1-3-3V3A3,3,0,0,1,3,0Z" transform="translate(150.735 110.066)" fill="#a5c32a"/><path d="M3,0h9.019a3,3,0,0,1,3,3v8.337a3,3,0,0,1-3,3H3a3,3,0,0,1-3-3V3A3,3,0,0,1,3,0Z" transform="translate(257.918 93.681)" fill="#a5c32a"/><path d="M3,0h9.019a3,3,0,0,1,3,3v8.337a3,3,0,0,1-3,3H3a3,3,0,0,1-3-3V3A3,3,0,0,1,3,0Z" transform="translate(264.745 117.133)" fill="#a5c32a"/><path d="M3,0H6.558a3,3,0,0,1,3,3V5.875a3,3,0,0,1-3,3H3a3,3,0,0,1-3-3V3A3,3,0,0,1,3,0Z" transform="translate(200.572 82.758)" fill="#a5c32a"/><path d="M3,0H6.558a3,3,0,0,1,3,3V5.875a3,3,0,0,1-3,3H3a3,3,0,0,1-3-3V3A3,3,0,0,1,3,0Z" transform="translate(199.206 131.912)" fill="#a5c32a"/><path d="M3,0H6.558a3,3,0,0,1,3,3V5.875a3,3,0,0,1-3,3H3a3,3,0,0,1-3-3V3A3,3,0,0,1,3,0Z" transform="translate(275.11 150.345)" fill="#a5c32a"/><path d="M3,0H7.923a3,3,0,0,1,3,3V7.24a3,3,0,0,1-3,3H3a3,3,0,0,1-3-3V3A3,3,0,0,1,3,0Z" transform="translate(287.274 151.153)" fill="#a5c32a"/><path d="M20.52,2.739q.191,0,.722.033a7.481,7.481,0,0,0,.78.033q.88-.017,1.054-.448V2.1q-4.109-.357-6.209-.349-4.018.008-5.171.988ZM12.841-7.238a2.141,2.141,0,0,1,1.361.216,2.278,2.278,0,0,1,.955.9,2.154,2.154,0,0,1,.307,1.278,2.164,2.164,0,0,1-.573,1.312,1.892,1.892,0,0,1-1.967.706,2.482,2.482,0,0,1-1.536-1.253A2.327,2.327,0,0,1,11.1-5.993,1.957,1.957,0,0,1,12.841-7.238ZM8.234,1.843a1.8,1.8,0,0,1-1.187-.664A2.754,2.754,0,0,1,6.383-.158a1.971,1.971,0,0,1,.2-1.419,2.031,2.031,0,0,1,1.4-.93,2.2,2.2,0,0,1,2.05.357,1.984,1.984,0,0,1,.639,1.6,2.542,2.542,0,0,1-.647,1.71A2.039,2.039,0,0,1,8.234,1.843ZM7.346-5.063a1.032,1.032,0,0,1,.623-1.021,1.427,1.427,0,0,1,1.419.125,1.445,1.445,0,0,1,.2,1.287,1.064,1.064,0,0,1-.755.631,1.22,1.22,0,0,1-.988-.1A1.009,1.009,0,0,1,7.346-5.063Zm.382-6.782a2.892,2.892,0,0,1,1.536-.125,1.626,1.626,0,0,1,1.029.8,2.722,2.722,0,0,1,.374,1.361,2.53,2.53,0,0,1-.332,1.37,1.659,1.659,0,0,1-1.071.813,2.326,2.326,0,0,1-1.876-.224,2.235,2.235,0,0,1-.979-1.312,2.248,2.248,0,0,1,.066-1.594A1.9,1.9,0,0,1,7.728-11.845ZM1.585-4.682A2.008,2.008,0,0,1,3.378-7.238a2.242,2.242,0,0,1,1.992.407A2.129,2.129,0,0,1,6.06-5.2a2.112,2.112,0,0,1-.614,1.66,2.236,2.236,0,0,1-1.453.631,2.378,2.378,0,0,1-1.544-.382A1.942,1.942,0,0,1,1.585-4.682ZM16.427-5.2a7.5,7.5,0,0,0-2.623-5.91A7.659,7.659,0,0,0,7.6-12.866a8.027,8.027,0,0,0-4.117,1.685,7.383,7.383,0,0,0-2.15,2.665,7.684,7.684,0,0,0-.714,4.64A7.389,7.389,0,0,0,2.449-.133a8.828,8.828,0,0,0,3.42,2.357A7.9,7.9,0,0,0,9.9,2.739,7.245,7.245,0,0,0,14.4.232,7.792,7.792,0,0,0,16.427-5.2Z" transform="translate(173 165)" fill="#fafafa"/><path d="M8.882-2.44q-.672-.05-.614-.042-.324-.066-.349-.332-.033-.523,1.2-.423-.05,0,1.627.266a1.072,1.072,0,0,1,.058.481,1.053,1.053,0,0,1-.83.174q-.2-.008-.564-.058ZM6.1-2.117a.724.724,0,0,1-.39-.315,1.133,1.133,0,0,1-.191-.54.756.756,0,0,1,.639-.9.891.891,0,0,1,.9.158.877.877,0,0,1,.241.73,1.06,1.06,0,0,1-.349.722A.848.848,0,0,1,6.1-2.117ZM5.786,1.3q0,.008-.033-.722A9.185,9.185,0,0,1,5.761-.473q.116-1.312.822-.9-.008.166.008.83a7.619,7.619,0,0,1-.008.971Q6.483,1.552,5.786,1.3ZM2.092-3.021q-.282-.382.075-.564a2.221,2.221,0,0,1,.971-.133,5.759,5.759,0,0,1,1.137.141q.556.133.6.282.166.581-1.121.506-.407-.033-1-.125ZM7.064-7.3a9.408,9.408,0,0,1-.05,1.942q-.191,1.2-.855.515a3.145,3.145,0,0,0,.083-.8q.008-.78.025-.913a1.232,1.232,0,0,1,.191-.681Q6.657-7.462,7.064-7.3ZM6.051-8.052A5.115,5.115,0,0,0,2.789-6.616,4.763,4.763,0,0,0,1.345-3.5,5.087,5.087,0,0,0,1.984-.448,4.842,4.842,0,0,0,4.018,1.444,5.42,5.42,0,0,0,6.7,2.034,4.89,4.89,0,0,0,9.313,1.2,4.979,4.979,0,0,0,10.841-.473,5.053,5.053,0,0,0,11.5-3.08a4.875,4.875,0,0,0-1.61-3.669A4.848,4.848,0,0,0,6.051-8.052Zm7.695-3.1q-.4.241-1.561,1.029-.971.647-1.594,1A14.91,14.91,0,0,1,12.26-7.139a5.4,5.4,0,0,1,.847,2.723,6.619,6.619,0,0,1-2.781,5.4q4.964-2.366,5.238-6.475a7.643,7.643,0,0,0-.448-3.138,15.542,15.542,0,0,0-1.262-2.523Z" transform="translate(292 132)" fill="#fafafa"/><path d="M18.025-2.954a17.941,17.941,0,0,1-2.662-.1v-.213a9.824,9.824,0,0,1,2.605-.27,9.824,9.824,0,0,1,2.605.27q-.18.359-1.056.371-.27,0-.775-.022Q18.216-2.954,18.025-2.954Zm-4.256.427a2.71,2.71,0,0,1-1.224.775,3.446,3.446,0,0,1-1.471.135,3.392,3.392,0,0,1-1.393-.449,2.652,2.652,0,0,1-1.022-.988,3.2,3.2,0,0,1-.438-1.5,3.01,3.01,0,0,1,.314-1.393,2.944,2.944,0,0,1,.9-1.089,3.314,3.314,0,0,1,1.359-.6,2.961,2.961,0,0,1,1.909.281,3.207,3.207,0,0,1,1.359,1.247,3.029,3.029,0,0,1,.472,1.763A2.952,2.952,0,0,1,13.769-2.527Zm-9.041-3.5a16.3,16.3,0,0,1-2.662-.112v-.314a17.157,17.157,0,0,1,5.211.1Q7.1-6,6.222-5.986a7.714,7.714,0,0,1-.775-.022Q4.919-6.031,4.728-6.031Zm0,1.595a16.3,16.3,0,0,1-2.662-.112v-.213A10.232,10.232,0,0,1,4.672-5.02a10.232,10.232,0,0,1,2.605.258q-.18.359-1.056.371a7.713,7.713,0,0,1-.775-.022Q4.919-4.436,4.728-4.436Zm0,1.482a18.091,18.091,0,0,1-2.662-.1V-3.38a16.774,16.774,0,0,1,5.211.112q-.18.359-1.056.371-.27,0-.775-.022Q4.919-2.954,4.728-2.954ZM15.363-4.762A8.472,8.472,0,0,1,17.9-5.009q.865.011,2.673.146-.157.472-.977.494-.247,0-.741-.034-.528-.034-.73-.034a17.229,17.229,0,0,1-2.763-.112Zm0-1.7a17.157,17.157,0,0,1,5.211.1q-.18.359-1.056.371a7.714,7.714,0,0,1-.775-.022q-.528-.022-.719-.022a16.165,16.165,0,0,1-2.662-.112Zm4.672,5a4.515,4.515,0,0,0,1.393-.213V-7.738a66.528,66.528,0,0,0-20.1,0,27.632,27.632,0,0,0,.056,3.111,15.543,15.543,0,0,1-.056,2.954,4.068,4.068,0,0,0,.809.146,3.169,3.169,0,0,1,.786.168,1.381,1.381,0,0,1-.09.168,1.021,1.021,0,0,0-.1.213q-.112.258.191.258.449.135.64-.157.292-.46.314-.483a57.39,57.39,0,0,0,15.206,0,.819.819,0,0,0,.2.539.724.724,0,0,0,.651.1.129.129,0,0,0,.112-.146.7.7,0,0,0-.067-.213.679.679,0,0,1-.067-.225A.161.161,0,0,1,20.035-1.46ZM10.579-4.548A10.693,10.693,0,0,1,9.3-4.975a4.2,4.2,0,0,1,.528-1.056q.09.067,1.179.629a1.858,1.858,0,0,0-.326.314A.745.745,0,0,0,10.579-4.548ZM11.107-7a2.372,2.372,0,0,0-1.595.854A2.351,2.351,0,0,0,9.007-4.6a2.313,2.313,0,0,0,.539,1.5,2.215,2.215,0,0,0,1.561.786A2.533,2.533,0,0,0,12.96-2.83a2.3,2.3,0,0,0,.809-2.033,2.2,2.2,0,0,0-.82-1.7A2.4,2.4,0,0,0,11.107-7Z" transform="translate(291 182)" fill="#fafafa"/><path d="M11.287,1.336a14.276,14.276,0,0,0-4.279-.067,19.459,19.459,0,0,1-4.458.067q-.09.1-.449.449a6.1,6.1,0,0,0-.46.483,1.485,1.485,0,0,0-.4,1.2,44.95,44.95,0,0,0,5.885.2A29.441,29.441,0,0,0,13,3.369q-.562-1.044-.663-1.19A1.988,1.988,0,0,0,11.287,1.336ZM5.806-2.729V.831Q5.851.82,6.873.854q.854.022.955-.124A6.958,6.958,0,0,1,7.715-.932q.034-1.494.011-1.8ZM2.448-10.141l1.3-.022q.775-.011.831.438-.146.337-.887.326-1.213-.034-1.247-.022a4.243,4.243,0,0,0-.1.91A3.482,3.482,0,0,0,3-8.5q.584-.034.685-.034.786.011.9.427-.079.438-.955.416a3.761,3.761,0,0,0-1.28.09A3.263,3.263,0,0,0,3.459-5.716,7.063,7.063,0,0,0,5.391-4.649q-.483.112-.4.809.124.034.1.2A4.482,4.482,0,0,0,6.761-3.4a4.576,4.576,0,0,0,1.685-.236q.056-.2.1-.2a.539.539,0,0,0-.168-.618q-.281-.258-.247-.3A5.171,5.171,0,0,0,10.1-5.739,2.987,2.987,0,0,0,11.084-7.7q.067.011-1.46.034-.854.011-.876-.539.191-.337.988-.326l1.348.022a2.651,2.651,0,0,0,0-.91L9.636-9.4q-.865.011-.988-.427.213-.337,1.044-.326l1.393.011a2.552,2.552,0,0,0,0-1.011q.112.011-1.393.022-.82,0-.943-.427.1-.449.932-.438,1.415.022,1.4.034a.885.885,0,0,0-.112-1.022q.09.011-1.393.022-.82.011-.932-.427.225-.314,1.044-.314.1,0,.708.022a6.257,6.257,0,0,0,.685-.011,2.789,2.789,0,0,0-1.729-2.538q-.034.067-.09.213a.855.855,0,0,1-.09.225.361.361,0,0,1-.427.168.38.38,0,0,1-.213-.045.46.46,0,0,0-.2-.056l-.1-1.112a1.631,1.631,0,0,1-.483-.067,1.168,1.168,0,0,0-.528-.034,2.644,2.644,0,0,0,0,.348q.011.27.011.371-.022.4-.213.494-.18.18-.809,0a3.679,3.679,0,0,1-.1-1.213.866.866,0,0,0-.472.045,1.118,1.118,0,0,1-.449.056,1.053,1.053,0,0,0-.1.606q0,.449-.2.505a.18.18,0,0,0-.112.045.154.154,0,0,1-.09.056q.191-.034-.91-.505a3.552,3.552,0,0,0-1.426,2.336,3.383,3.383,0,0,0,1.28.09q.876-.022.955.416-.146.348-.887.326l-1.247-.022a10.131,10.131,0,0,0-.1,1.022q-.045-.011,1.348-.022.8-.011.887.427-.168.382-.91.416-.191,0-.663-.011-.438-.011-.663,0A9.929,9.929,0,0,0,2.448-10.141Z" transform="translate(177 120)" fill="#fafafa"/><path d="M11.747-9.737a1.814,1.814,0,0,1,1.516.247q.247.135.73.472t.73.472q1.134.651,1.269.741a1.378,1.378,0,0,1,.7.876,1.475,1.475,0,0,1-.752,1.3q.09-.067-1.292.741-.112.067-.55.382a8.206,8.206,0,0,1-.708.472,2.121,2.121,0,0,1-1.64.348q-.359-.112-.573-1.022a8.765,8.765,0,0,1-.213-1.965,8.99,8.99,0,0,1,.191-1.988Q11.365-9.591,11.747-9.737Zm6.637,3.83a4.86,4.86,0,0,0-1.28-4.256,4.841,4.841,0,0,0-3.83-1.527,4.9,4.9,0,0,0-2.785.943A5.025,5.025,0,0,0,8.816-8.591,5.071,5.071,0,0,0,8.49-5.907,4.752,4.752,0,0,0,9.7-3.347,4.509,4.509,0,0,0,12.05-1.988a5.576,5.576,0,0,0,2.74-.056,5.144,5.144,0,0,0,2.358-1.348A4.321,4.321,0,0,0,18.384-5.907Zm5.2,8.6a3.616,3.616,0,0,0-.82-.011,1.9,1.9,0,0,1-.8-.079V.988h1.617a7.867,7.867,0,0,0,.011.921A5.157,5.157,0,0,1,23.584,2.7ZM20.855-14.5H19.238v-1.707h1.617Zm0,17.1a2.232,2.232,0,0,1-1.617,0V.988h1.617Zm-2.639,0a2.158,2.158,0,0,1-1.617,0V.988h1.617a3.932,3.932,0,0,1,.011.719A7.507,7.507,0,0,0,18.216,2.605Zm-2.549,0a8.686,8.686,0,0,1-1.707.09V.988h1.707Zm-2.729,0a8.591,8.591,0,0,1-1.7.09V.988h1.7ZM10.22,2.7q-.2-.022-.809-.034a5.062,5.062,0,0,1-.73-.056V.988H10.3q-.011.124.011.91A2.16,2.16,0,0,1,10.22,2.7Zm-2.561-.09a2.484,2.484,0,0,1-1.617,0V.988H7.659ZM6.042-16.206H7.659V-14.5H6.042Zm4.256,0V-14.5H8.681a4.437,4.437,0,0,1-.011-.764,8.274,8.274,0,0,0,.011-.943Zm.943,0h1.617a2.16,2.16,0,0,1,.09.8q-.022.786-.011.91h-1.7Zm2.718,0h1.707V-14.5H13.959ZM6.637-13.735q5.941.18,13.712,0V.146H6.559V-13.477Q6.536-13.724,6.637-13.735ZM16.6-16.206h1.617a1.965,1.965,0,0,1,.011.685,6.785,6.785,0,0,0-.011,1.022H16.6Zm5.368,0h1.617V-14.5H21.967ZM4.941-14.5H3.324v-1.707H4.941Zm0,17.1a3.328,3.328,0,0,1-1.617,0V.988H4.941ZM22.382.056q.022-1.235,0-6.952-.022-4.268.09-6.839a5.128,5.128,0,0,1,1,.045q.9.1,1.168.112,1.37.045,1.235-.842-.124-.124-.674-.079t-.685-.09a8.9,8.9,0,0,0,.09-1.617,4.681,4.681,0,0,1,.741.022q.472.034.528-.191v-.505q-4.694-.124-12.331-.1-10.2.022-12.432.011.1-.045-.09.764a8.094,8.094,0,0,0,1.359.09V-14.5H1.022v.854q.562.034,1.831-.022a10.989,10.989,0,0,1,1.662.022V.146H1.022V.988a4.855,4.855,0,0,0,.73-.011,1.175,1.175,0,0,1,.629.1V2.605a1.645,1.645,0,0,1-.741.067q-.528-.022-.618.191V3.38q18.339.191,24.853-.09V2.785q-.045-.157-.584-.1a1.237,1.237,0,0,1-.775-.079V.988a5.265,5.265,0,0,1,.786.022q.494.034.573-.191V.146Q22.292.034,22.382.056Z" transform="translate(222 87)" fill="#fafafa"/><path d="M4.8.242q0,.125.023.445.023.3.023.469a.859.859,0,0,1-.328.75A.971.971,0,0,1,4.2,1.188,4.4,4.4,0,0,1,4.172.711Q4.164.383,4.148.242q-.516-5.648-.555-5.9v-.18a1.219,1.219,0,0,1,.6-.109,1.219,1.219,0,0,1,.6.109ZM6.273-5.93a60,60,0,0,1,0,7.742.767.767,0,0,0-.258.07.521.521,0,0,1-.3.023,20.021,20.021,0,0,1-.211-3.8q.055-3.359.023-4.031Zm.734.094q-.031.023,1.2-.094-.789,7.68-.828,7.836-.352-.031-.391-.516-.008-.156.008-.437.016-.328.016-.43-.016-.953,0-3.094.016-2.227,0-3.086ZM9.773-5.93Q9.18-.172,9.125.336q-.008.07-.016.445a3.806,3.806,0,0,1-.039.508q-.109.6-.586.617a20.6,20.6,0,0,1,.109-3.883q.07-.672.234-2.062.148-1.3.211-1.891ZM2.859,1.906q-.234-2.4-.828-7.742a.486.486,0,0,1,.359-.1q.055,0,.242.008h.227q.133,1.156.367,4.031.219,2.617.367,3.8A5.051,5.051,0,0,0,2.859,1.906ZM1.289-6.578q.008.023.922,9.125,3.023.047,7.375,0Q9.8.945,10.1-2.008q.336-3.211.5-4.57Zm9.594-2.211a1.971,1.971,0,0,0-.148-1.937,1.744,1.744,0,0,0-1.789-.734,2.231,2.231,0,0,0-1.039-.5,1.957,1.957,0,0,0-1.266.133,1.807,1.807,0,0,0-2.1-.094,12.107,12.107,0,0,0-1.586,1.289A1.753,1.753,0,0,0,1.172-9.414a7.555,7.555,0,0,0-.32,1.172q-.2.891-.3,1.2a.906.906,0,0,0,.906-.2,2.725,2.725,0,0,0,.234-.32,2.283,2.283,0,0,1,.242-.312A1.305,1.305,0,0,1,1.984-9.3a1.3,1.3,0,0,1,1.43-.5,2.79,2.79,0,0,0,.5-.461q.445-.5.547-.594A1.524,1.524,0,0,1,5.9-11.375a.89.89,0,0,1,.648.648,1.221,1.221,0,0,1,1.117-.4,1.272,1.272,0,0,1,1,.586.622.622,0,0,1,.414-.1,4.707,4.707,0,0,1,.508.008.968.968,0,0,1,.625,1.016,1.59,1.59,0,0,1-.437,1.2,2.606,2.606,0,0,1,.656.5,1.191,1.191,0,0,1,.266.883h.828a2.036,2.036,0,0,0-.2-.992q-.07-.133-.219-.383T10.883-8.789Z" transform="translate(240 119)" fill="#fafafa"/><path d="M8.9-3.242a4.75,4.75,0,0,1-.437-.289q-.3-.211-.391-.273A1.609,1.609,0,0,0,7.2-4.07q-.656.023-.648,1.445,0,.352.063,1.211A7.845,7.845,0,0,1,6.641-.383a.9.9,0,0,0,1.1.211Q7.844-.211,8.9-.82q.812-.469.867-.508a.928.928,0,0,0,.453-.7A.834.834,0,0,0,9.8-2.742a4.615,4.615,0,0,0-.43-.25Q8.992-3.187,8.9-3.242ZM5.93.336a3.055,3.055,0,0,1-.961-2.4A3.136,3.136,0,0,1,5.875-4.4,3.078,3.078,0,0,1,7.8-5.219a3.15,3.15,0,0,1,2.359.688A2.973,2.973,0,0,1,11.32-2.469a3.164,3.164,0,0,1-.406,2.016A3.172,3.172,0,0,1,9.516.8a3.316,3.316,0,0,1-1.836.328A3.008,3.008,0,0,1,5.93.336Zm8.852-7.047H1.523q-.063.016-.055.172v4.563q0,.2-.031,1Q1.4-.164,1.391.32A3.315,3.315,0,0,0,1.75,2.313a2.317,2.317,0,0,0,1.391.3q.375.008.977-.008l.875-.008h6.656q1.7,0,1.8-.008.953-.063,1.172-.383a1.737,1.737,0,0,0,.2-.945q0-.211-.016-.586-.016-.414-.016-.555Zm-2.414-.6q.094-.2.328-.625a6.357,6.357,0,0,0,.328-.641h1.7q.031-.086-.656,1.266Zm-3.633,0a3.614,3.614,0,0,1,.32-.641,3.519,3.519,0,0,0,.336-.625H11.1q-.1.227-.328.633t-.336.633Zm-3.633,0,.664-1.266h1.7q-.094.2-.336.625a6.357,6.357,0,0,0-.328.641Zm-3.687,0q.078-.156.344-.625a4.545,4.545,0,0,0,.32-.641H3.836A12.936,12.936,0,0,0,3.18-7.312Zm1.547-3.133a3.139,3.139,0,0,1,.445.57,4.4,4.4,0,0,0,.43.586,8.561,8.561,0,0,1-1.7.219q-.75-1.156-.773-1.211A14.027,14.027,0,0,0,2.961-10.445ZM6.7-10.781a3.593,3.593,0,0,0,.406.625,1.569,1.569,0,0,1,.313.586,5.635,5.635,0,0,0-.8.055,5.627,5.627,0,0,1-.789.055,3.853,3.853,0,0,1-.828-1.148A11.945,11.945,0,0,1,6.7-10.781Zm3.578-.383q.148.188.414.578t.414.578a4.6,4.6,0,0,1-.844.125,8.431,8.431,0,0,0-.867.094q-.742-1.07-.82-1.156Q8.734-11,10.273-11.164Zm3.523-.383q-.187-.055.875,1.211a2.4,2.4,0,0,0-.836.094,1.594,1.594,0,0,1-.7.07q-.281-.07-.5-.523a1.82,1.82,0,0,0-.43-.633,4.235,4.235,0,0,0,.836-.156A1.568,1.568,0,0,1,13.8-11.547ZM2.242-8.852q8.164-.8,12.93-1.32a4.008,4.008,0,0,1-.117-.914q-.055-.711-.383-.789a.142.142,0,0,0-.109.016,1.017,1.017,0,0,1-.109.039q-1.875.211-6.742.672-4.656.438-6.844.7a23.821,23.821,0,0,1,.164,3.352h14.2V-8.8Q14.047-8.8,8.7-8.789,4.687-8.781,2.242-8.852Z" transform="translate(232 156)" fill="#fafafa"/><path d="M7.33.033A5.6,5.6,0,0,0,7.4,1.295q-.158-.008-.465,0-.34.017-.473.008Q5.943,1.287,5.844,1H2.88V2.108H5.918q.133-.033.1-.183Q6,1.8,6.143,1.81H7.628a2.031,2.031,0,0,0,1.212.822,2.46,2.46,0,0,0,1.453-.075,2.1,2.1,0,0,0,1.121-.9A2.174,2.174,0,0,0,11.629.033,22.325,22.325,0,0,0,7.33.033Zm4.375-4.3H8.068v2H11.7Zm3.7-.3q-.506-.108-.706.158a1.174,1.174,0,0,0-.158.722q.033,1.851.05,1.793h.963q.141-.357.938-.324a12.7,12.7,0,0,0,1.287.025v-2a4.844,4.844,0,0,0-1.3-.066Q15.6-4.233,15.406-4.565ZM1.32-5.528q-.066.307-.813,2.748a4.459,4.459,0,0,0,.714-.075,6.9,6.9,0,0,1,.7-.075q.116-.3.266-.805.2-.672.249-.83A3.889,3.889,0,0,0,1.32-5.528ZM22.6-6.417q-3.4,1.4-4.225,1.7v2.9q.623.183,2.175.714,1.37.465,2.2.689v-6ZM12.667-7.454a1.271,1.271,0,0,1-1.054-.174,1.427,1.427,0,0,1-.581-.8,1.235,1.235,0,0,1,.058-.946,1.141,1.141,0,0,1,.838-.606,1.238,1.238,0,0,1,1.046.191,1.318,1.318,0,0,1,.523.8,1.356,1.356,0,0,1-.083.938A1.082,1.082,0,0,1,12.667-7.454Zm-.448,5.786H7.479v-3.2h4.74Zm-5.7-6.084a1.354,1.354,0,0,1-.706.307A1.548,1.548,0,0,1,5-7.529a1.208,1.208,0,0,1-.706-1.561A1,1,0,0,1,4.574-9.6a1.386,1.386,0,0,1,.681-.382,1.308,1.308,0,0,1,.838.083,1.454,1.454,0,0,1,.647.531,1.178,1.178,0,0,1,.224.78A1.275,1.275,0,0,1,6.516-7.753Zm9.712-1.038a3.712,3.712,0,0,0-.656-2.1,4.106,4.106,0,0,0-1.619-1.386,4.1,4.1,0,0,0-2.092-.432,3.689,3.689,0,0,0-2.083.805,4.726,4.726,0,0,0-.49.556q-.332.407-.407.407-.033,0-.249-.307-.241-.332-.266-.357a3.878,3.878,0,0,0-2.449-1.112A3.669,3.669,0,0,0,2.98-11.8,3.933,3.933,0,0,0,1.751-9.289a4.263,4.263,0,0,0,.531,2.756,3.336,3.336,0,0,0,2.3,1.668q-.166.979-.075.9a4.046,4.046,0,0,0-1.038-.3q.183-.349-.1-.49A1.539,1.539,0,0,0,3.1-4.848q-.216-.058-.291-.083-.1.382-.374,1.253-.257.8-.365,1.262a3.275,3.275,0,0,1,.589.224q.166.017.208-.2.042-.241.166-.249a2.894,2.894,0,0,0,.789.282,2.235,2.235,0,0,1,.764.315A6.4,6.4,0,0,0,4.657-.78a3.786,3.786,0,0,0,2.075.5q.465.008,1.32-.025Q9.031-.34,9.4-.34q.349,0,1.353.042.863.042,1.336.025A2.666,2.666,0,0,0,14.078-.93v-4.3A5.363,5.363,0,0,0,15.63-6.641,3.7,3.7,0,0,0,16.228-8.791Z" transform="translate(124 137)" fill="#fafafa"/></g></svg>